<?xml version="1.0" standalone="no"?>
<!DOCTYPE svg PUBLIC "-//W3C//DTD SVG 20010904//EN"
 "http://www.w3.org/TR/2001/REC-SVG-20010904/DTD/svg10.dtd">
<svg version="1.0" xmlns="http://www.w3.org/2000/svg"
 width="459.000000pt" height="97.000000pt" viewBox="0 0 459.000000 97.000000"
 preserveAspectRatio="xMidYMid meet">

<g transform="translate(0.000000,97.000000) scale(0.100000,-0.100000)"
fill="#000000" stroke="none">
<path d="M760 874 c0 -8 5 -12 10 -9 6 3 10 10 10 16 0 5 -4 9 -10 9 -5 0 -10
-7 -10 -16z"/>
<path d="M780 793 c0 -13 6 -23 14 -23 8 0 23 -3 33 -6 13 -5 11 -2 -5 11 -13
9 -21 23 -19 29 3 7 -1 13 -9 13 -8 0 -14 -10 -14 -24z"/>
<path d="M3860 755 c0 -8 2 -15 4 -15 2 0 6 7 10 15 3 8 1 15 -4 15 -6 0 -10
-7 -10 -15z"/>
<path d="M815 740 c-3 -5 -4 -10 -2 -10 3 0 1 -16 -3 -35 -6 -28 -5 -35 7 -35
8 0 11 -5 8 -10 -4 -6 -9 -8 -13 -6 -4 2 -7 -27 -7 -66 0 -38 -3 -72 -6 -74
-4 -2 -3 -20 1 -40 6 -28 5 -34 -5 -30 -10 4 -12 -4 -9 -32 3 -20 6 -48 8 -62
1 -14 4 -29 4 -34 1 -6 9 -1 18 10 8 10 13 13 9 7 -6 -12 7 -18 28 -14 5 1 5
-4 1 -10 -15 -26 -5 -68 25 -98 17 -18 31 -26 31 -19 0 10 2 10 9 -1 13 -20
50 -4 57 25 3 13 10 21 15 19 4 -3 15 7 22 22 13 25 23 61 73 272 22 92 31
111 52 111 14 0 43 -50 121 -212 142 -293 216 -400 274 -397 l22 2 -22 4 c-53
10 -100 99 -214 407 -69 187 -95 240 -137 277 -28 25 -41 30 -64 25 -16 -3
-35 -11 -41 -18 -23 -23 -53 -82 -67 -128 -8 -25 -17 -49 -21 -55 -4 -5 -10
-28 -14 -50 -15 -80 -65 -146 -65 -86 0 22 -22 43 -41 39 -11 -2 -13 15 -10
82 1 47 7 90 12 96 5 6 6 14 2 17 -6 6 -12 38 -15 74 -1 9 -5 10 -14 2 -9 -8
-12 -4 -10 15 3 26 -7 35 -19 16z m155 -480 c0 -5 -4 -10 -10 -10 -5 0 -10 5
-10 10 0 6 5 10 10 10 6 0 10 -4 10 -10z"/>
<path d="M3943 663 c-25 -10 -12 -48 30 -91 41 -41 42 -45 41 -105 0 -59 -28
-147 -46 -147 -5 0 -8 -7 -8 -15 0 -22 18 -18 25 5 3 11 9 19 13 19 25 -4 36
7 60 59 18 40 27 77 29 124 2 59 -1 70 -26 106 -32 43 -79 61 -118 45z"/>
<path d="M760 640 c0 -5 5 -10 11 -10 5 0 7 5 4 10 -3 6 -8 10 -11 10 -2 0 -4
-4 -4 -10z"/>
<path d="M1653 424 c-48 -24 -77 -77 -77 -139 0 -94 56 -152 156 -161 65 -7
131 24 165 75 50 74 19 187 -60 225 -45 21 -142 21 -184 0z m163 -55 c45 -42
39 -150 -9 -184 -32 -23 -91 -19 -122 8 -31 26 -46 86 -33 135 18 68 111 91
164 41z"/>
<path d="M2090 383 c-1 -26 -2 -95 -3 -153 l-2 -105 35 0 35 0 3 58 3 58 61
-3 c67 -3 70 -7 85 -73 7 -36 11 -40 42 -43 l33 -3 -7 53 c-4 30 -15 62 -26
74 -19 20 -19 21 6 44 32 30 32 70 1 107 -24 27 -27 28 -145 31 l-121 4 0 -49z
m198 -9 c9 -2 12 -17 10 -41 l-3 -38 -67 -3 -68 -3 0 44 c0 24 3 47 7 50 6 7
92 0 121 -9z"/>
<path d="M2634 416 c-38 -17 -79 -69 -88 -112 -10 -47 9 -114 41 -146 17 -17
51 -34 79 -42 45 -12 56 -11 100 5 29 11 50 15 52 9 2 -6 15 -10 28 -10 23 0
24 2 24 80 l0 80 -70 0 c-63 0 -70 -2 -70 -19 0 -15 8 -21 33 -23 27 -2 32 -7
32 -28 0 -42 -95 -68 -136 -37 -58 45 -49 184 13 201 50 13 86 7 106 -19 14
-17 30 -25 51 -25 36 0 36 1 16 39 -27 53 -140 78 -211 47z"/>
<path d="M3139 398 c-35 -63 -127 -273 -123 -280 3 -4 16 -8 30 -8 18 0 29 9
41 35 l17 36 75 -3 75 -3 10 -32 c8 -29 13 -33 44 -33 23 0 32 4 29 12 -3 7
-26 65 -52 128 -64 162 -65 164 -102 168 -25 2 -35 -2 -44 -20z m66 -105 c26
-62 21 -75 -27 -71 -49 3 -51 13 -23 81 18 43 29 41 50 -10z"/>
<path d="M3488 276 c-4 -166 -3 -168 30 -164 27 3 27 4 30 96 1 50 7 92 11 92
5 0 37 -43 72 -95 62 -93 89 -115 123 -102 11 5 15 36 18 144 2 76 -1 144 -6
151 -12 17 -43 15 -50 -4 -3 -9 -6 -54 -6 -100 0 -46 -4 -84 -9 -84 -5 0 -39
45 -75 100 -62 95 -67 100 -100 100 l-35 0 -3 -134z"/>
<path d="M4208 305 c-30 -17 -42 -45 -33 -75 6 -18 83 -50 121 -50 6 0 17 -7
24 -15 10 -12 10 -18 0 -30 -16 -19 -74 -19 -90 0 -13 16 -70 21 -70 7 0 -18
37 -41 78 -51 68 -15 135 11 146 55 9 35 -15 61 -68 74 -63 16 -86 28 -86 45
0 20 68 20 94 0 25 -19 56 -19 56 -2 0 45 -117 73 -172 42z"/>
</g>
</svg>
